<?xml version="1.0" standalone="no"?>
<!DOCTYPE svg PUBLIC "-//W3C//DTD SVG 20010904//EN"
 "http://www.w3.org/TR/2001/REC-SVG-20010904/DTD/svg10.dtd">
<svg version="1.0" xmlns="http://www.w3.org/2000/svg"
 width="260.000000pt" height="260.000000pt" viewBox="0 0 260.000000 260.000000"
 preserveAspectRatio="xMidYMid meet">
<metadata>
Created by potrace 1.11, written by Peter Selinger 2001-2013
</metadata>
<g transform="translate(0.000000,260.000000) scale(0.100000,-0.100000)"
fill="#000000" stroke="none">
<path d="M802 2340 c-76 -46 -95 -141 -43 -221 16 -24 110 -125 210 -224 100
-99 181 -183 181 -187 0 -27 -54 21 -300 266 -151 151 -288 280 -303 285 -94
36 -196 -22 -212 -119 -12 -71 16 -105 308 -375 147 -136 267 -251 267 -256 0
-31 -52 10 -300 241 -154 143 -292 265 -306 270 -123 47 -249 -77 -199 -196
11 -27 103 -127 292 -315 175 -176 273 -281 268 -289 -5 -8 -78 58 -209 188
-165 164 -208 202 -241 211 -126 34 -236 -97 -179 -212 19 -38 1136 -1162
1176 -1183 44 -23 100 -18 144 14 53 39 1182 1178 1205 1217 37 60 16 154 -44
197 -39 28 -114 35 -153 15 -16 -9 -103 -90 -194 -181 -91 -91 -169 -166 -175
-166 -5 0 -239 229 -520 509 -280 281 -523 515 -538 520 -44 17 -99 13 -135
-9z"/>
<path d="M1600 2340 c-19 -10 -95 -79 -168 -152 l-132 -133 108 -108 108 -107
146 147 c156 158 169 179 154 257 -18 95 -128 144 -216 96z"/>
<path d="M1990 2250 c-19 -10 -128 -112 -243 -227 l-207 -208 100 -100 99 -99
23 20 c156 139 423 394 434 416 8 15 14 47 14 71 0 111 -121 181 -220 127z"/>
<path d="M2230 2009 c-31 -19 -180 -154 -393 -357 l-69 -65 114 -114 113 -113
224 224 225 225 4 58 c3 49 0 64 -20 93 -45 67 -132 89 -198 49z"/>
</g>
</svg>
